<svg width="160" height="198" viewBox="0 0 160 198" fill="none" xmlns="http://www.w3.org/2000/svg">
<path d="M94.3832 62.656C91.7534 59.8123 89.4944 56.6234 87.6815 53.1648L64.6226 69.4029C67.2523 72.2467 69.5113 75.4355 71.3243 78.8941L94.3832 62.656Z" fill="#248232" fill-opacity="0.15"/>
<path d="M71.3243 119.578C69.5113 123.036 67.2523 126.225 64.6226 129.069L87.6815 145.307C89.4944 141.848 91.7534 138.66 94.3832 135.816L71.3243 119.578Z" fill="#248232" fill-opacity="0.15"/>
<path d="M64.7024 99.2359C64.7024 81.3974 50.1898 66.8848 32.3512 66.8848C14.5126 66.8848 0 81.3974 0 99.2359C0 117.075 14.5126 131.587 32.3512 131.587C50.1898 131.587 64.7024 117.075 64.7024 99.2359Z" fill="#248232" fill-opacity="0.15"/>
<path d="M126.654 65.1743C144.493 65.1743 159.006 50.6617 159.006 32.8231C159.006 14.9845 144.493 0.471924 126.654 0.471924C108.816 0.471924 94.3032 14.9845 94.3032 32.8231C94.3032 50.6617 108.816 65.1743 126.654 65.1743Z" fill="#248232" fill-opacity="0.15"/>
<path d="M126.654 133.298C108.816 133.298 94.3032 147.81 94.3032 165.649C94.3032 183.487 108.816 198 126.654 198C144.491 198 159.006 183.487 159.006 165.649C159.006 147.81 144.493 133.298 126.654 133.298Z" fill="#248232" fill-opacity="0.15"/>
</svg>
