<svg width="195" height="31" viewBox="0 0 195 31" fill="none" xmlns="http://www.w3.org/2000/svg">
<path d="M51.6471 22.1431C50.2204 22.1431 48.9271 21.8364 47.7671 21.2231C46.6204 20.5964 45.7138 19.7364 45.0471 18.6431C44.3938 17.5364 44.0671 16.2897 44.0671 14.9031C44.0671 13.5164 44.3938 12.2764 45.0471 11.1831C45.7138 10.0764 46.6204 9.21641 47.7671 8.60308C48.9271 7.97641 50.2271 7.66308 51.6671 7.66308C52.8804 7.66308 53.9738 7.87641 54.9471 8.30308C55.9338 8.72974 56.7604 9.34308 57.4271 10.1431L55.3471 12.0631C54.4004 10.9697 53.2271 10.4231 51.8271 10.4231C50.9604 10.4231 50.1871 10.6164 49.5071 11.0031C48.8271 11.3764 48.2938 11.9031 47.9071 12.5831C47.5338 13.2631 47.3471 14.0364 47.3471 14.9031C47.3471 15.7697 47.5338 16.5431 47.9071 17.2231C48.2938 17.9031 48.8271 18.4364 49.5071 18.8231C50.1871 19.1964 50.9604 19.3831 51.8271 19.3831C53.2271 19.3831 54.4004 18.8297 55.3471 17.7231L57.4271 19.6431C56.7604 20.4564 55.9338 21.0764 54.9471 21.5031C53.9604 21.9297 52.8604 22.1431 51.6471 22.1431ZM62.3751 12.5631C62.7484 12.0431 63.2484 11.6497 63.8751 11.3831C64.5151 11.1164 65.2484 10.9831 66.0751 10.9831V13.8631C65.7284 13.8364 65.4951 13.8231 65.3751 13.8231C64.4817 13.8231 63.7817 14.0764 63.2751 14.5831C62.7684 15.0764 62.5151 15.8231 62.5151 16.8231V21.9031H59.3951V11.1431H62.3751V12.5631ZM72.9526 22.0631C71.8192 22.0631 70.7992 21.8297 69.8926 21.3631C68.9992 20.8831 68.2992 20.2231 67.7926 19.3831C67.2859 18.5431 67.0326 17.5897 67.0326 16.5231C67.0326 15.4564 67.2859 14.5031 67.7926 13.6631C68.2992 12.8231 68.9992 12.1697 69.8926 11.7031C70.7992 11.2231 71.8192 10.9831 72.9526 10.9831C74.0859 10.9831 75.0992 11.2231 75.9926 11.7031C76.8859 12.1697 77.5859 12.8231 78.0926 13.6631C78.5992 14.5031 78.8526 15.4564 78.8526 16.5231C78.8526 17.5897 78.5992 18.5431 78.0926 19.3831C77.5859 20.2231 76.8859 20.8831 75.9926 21.3631C75.0992 21.8297 74.0859 22.0631 72.9526 22.0631ZM72.9526 19.5031C73.7526 19.5031 74.4059 19.2364 74.9126 18.7031C75.4326 18.1564 75.6926 17.4297 75.6926 16.5231C75.6926 15.6164 75.4326 14.8964 74.9126 14.3631C74.4059 13.8164 73.7526 13.5431 72.9526 13.5431C72.1526 13.5431 71.4926 13.8164 70.9726 14.3631C70.4526 14.8964 70.1926 15.6164 70.1926 16.5231C70.1926 17.4297 70.4526 18.1564 70.9726 18.7031C71.4926 19.2364 72.1526 19.5031 72.9526 19.5031ZM97.9251 11.1431L94.0251 21.9031H91.0251L88.6051 15.2231L86.1051 21.9031H83.1051L79.2251 11.1431H82.1651L84.7051 18.4231L87.3451 11.1431H89.9851L92.5451 18.4231L95.1651 11.1431H97.9251ZM110.043 7.06308V21.9031H107.063V20.6631C106.289 21.5964 105.169 22.0631 103.703 22.0631C102.689 22.0631 101.769 21.8364 100.943 21.3831C100.129 20.9297 99.4892 20.2831 99.0226 19.4431C98.5559 18.6031 98.3226 17.6297 98.3226 16.5231C98.3226 15.4164 98.5559 14.4431 99.0226 13.6031C99.4892 12.7631 100.129 12.1164 100.943 11.6631C101.769 11.2097 102.689 10.9831 103.703 10.9831C105.076 10.9831 106.149 11.4164 106.923 12.2831V7.06308H110.043ZM104.243 19.5031C105.029 19.5031 105.683 19.2364 106.203 18.7031C106.723 18.1564 106.983 17.4297 106.983 16.5231C106.983 15.6164 106.723 14.8964 106.203 14.3631C105.683 13.8164 105.029 13.5431 104.243 13.5431C103.443 13.5431 102.783 13.8164 102.263 14.3631C101.743 14.8964 101.483 15.6164 101.483 16.5231C101.483 17.4297 101.743 18.1564 102.263 18.7031C102.783 19.2364 103.443 19.5031 104.243 19.5031ZM116.35 11.3831H119.11V13.7831H116.43V21.9031H113.31V13.7831H111.65V11.3831H113.31V10.9031C113.31 9.67641 113.67 8.70308 114.39 7.98308C115.124 7.26308 116.15 6.90307 117.47 6.90307C117.937 6.90307 118.377 6.95641 118.79 7.06308C119.217 7.15641 119.57 7.29641 119.85 7.48308L119.03 9.74308C118.67 9.48974 118.25 9.36308 117.77 9.36308C116.824 9.36308 116.35 9.88308 116.35 10.9231V11.3831ZM131.505 11.1431V21.9031H128.545V20.6231C128.131 21.0897 127.638 21.4497 127.065 21.7031C126.491 21.9431 125.871 22.0631 125.205 22.0631C123.791 22.0631 122.671 21.6564 121.845 20.8431C121.018 20.0297 120.605 18.8231 120.605 17.2231V11.1431H123.725V16.7631C123.725 18.4964 124.451 19.3631 125.905 19.3631C126.651 19.3631 127.251 19.1231 127.705 18.6431C128.158 18.1497 128.385 17.4231 128.385 16.4631V11.1431H131.505ZM140.935 10.9831C142.268 10.9831 143.342 11.3831 144.155 12.1831C144.982 12.9831 145.395 14.1697 145.395 15.7431V21.9031H142.275V16.2231C142.275 15.3697 142.088 14.7364 141.715 14.3231C141.342 13.8964 140.802 13.6831 140.095 13.6831C139.308 13.6831 138.682 13.9297 138.215 14.4231C137.748 14.9031 137.515 15.6231 137.515 16.5831V21.9031H134.395V11.1431H137.375V12.4031C137.788 11.9497 138.302 11.6031 138.915 11.3631C139.528 11.1097 140.202 10.9831 140.935 10.9831ZM159.3 7.06308V21.9031H156.32V20.6631C155.547 21.5964 154.427 22.0631 152.96 22.0631C151.947 22.0631 151.027 21.8364 150.2 21.3831C149.387 20.9297 148.747 20.2831 148.28 19.4431C147.814 18.6031 147.58 17.6297 147.58 16.5231C147.58 15.4164 147.814 14.4431 148.28 13.6031C148.747 12.7631 149.387 12.1164 150.2 11.6631C151.027 11.2097 151.947 10.9831 152.96 10.9831C154.334 10.9831 155.407 11.4164 156.18 12.2831V7.06308H159.3ZM153.5 19.5031C154.287 19.5031 154.94 19.2364 155.46 18.7031C155.98 18.1564 156.24 17.4297 156.24 16.5231C156.24 15.6164 155.98 14.8964 155.46 14.3631C154.94 13.8164 154.287 13.5431 153.5 13.5431C152.7 13.5431 152.04 13.8164 151.52 14.3631C151 14.8964 150.74 15.6164 150.74 16.5231C150.74 17.4297 151 18.1564 151.52 18.7031C152.04 19.2364 152.7 19.5031 153.5 19.5031ZM162.188 11.1431H165.308V21.9031H162.188V11.1431ZM163.748 9.64308C163.175 9.64308 162.708 9.47641 162.348 9.14308C161.988 8.80974 161.808 8.39641 161.808 7.90308C161.808 7.40974 161.988 6.99641 162.348 6.66308C162.708 6.32974 163.175 6.16307 163.748 6.16307C164.321 6.16307 164.788 6.32308 165.148 6.64308C165.508 6.96308 165.688 7.36308 165.688 7.84308C165.688 8.36308 165.508 8.79641 165.148 9.14308C164.788 9.47641 164.321 9.64308 163.748 9.64308ZM174.744 10.9831C176.077 10.9831 177.15 11.3831 177.964 12.1831C178.79 12.9831 179.204 14.1697 179.204 15.7431V21.9031H176.084V16.2231C176.084 15.3697 175.897 14.7364 175.524 14.3231C175.15 13.8964 174.61 13.6831 173.904 13.6831C173.117 13.6831 172.49 13.9297 172.024 14.4231C171.557 14.9031 171.324 15.6231 171.324 16.5831V21.9031H168.204V11.1431H171.184V12.4031C171.597 11.9497 172.11 11.6031 172.724 11.3631C173.337 11.1097 174.01 10.9831 174.744 10.9831ZM193.249 11.1431V20.1031C193.249 22.0764 192.736 23.5431 191.709 24.5031C190.682 25.4631 189.182 25.9431 187.209 25.9431C186.169 25.9431 185.182 25.8164 184.249 25.5631C183.316 25.3097 182.542 24.9431 181.929 24.4631L183.169 22.2231C183.622 22.5964 184.196 22.8897 184.889 23.1031C185.582 23.3297 186.276 23.4431 186.969 23.4431C188.049 23.4431 188.842 23.1964 189.349 22.7031C189.869 22.2231 190.129 21.4897 190.129 20.5031V20.0431C189.316 20.9364 188.182 21.3831 186.729 21.3831C185.742 21.3831 184.836 21.1697 184.009 20.7431C183.196 20.3031 182.549 19.6897 182.069 18.9031C181.589 18.1164 181.349 17.2097 181.349 16.1831C181.349 15.1564 181.589 14.2497 182.069 13.4631C182.549 12.6764 183.196 12.0697 184.009 11.6431C184.836 11.2031 185.742 10.9831 186.729 10.9831C188.289 10.9831 189.476 11.4964 190.289 12.5231V11.1431H193.249ZM187.349 18.8231C188.176 18.8231 188.849 18.5831 189.369 18.1031C189.902 17.6097 190.169 16.9697 190.169 16.1831C190.169 15.3964 189.902 14.7631 189.369 14.2831C188.849 13.7897 188.176 13.5431 187.349 13.5431C186.522 13.5431 185.842 13.7897 185.309 14.2831C184.776 14.7631 184.509 15.3964 184.509 16.1831C184.509 16.9697 184.776 17.6097 185.309 18.1031C185.842 18.5831 186.522 18.8231 187.349 18.8231Z" fill="#FCFFFC"/>
<path d="M31.3257 2.10794L3.8627 8.62907C3.38637 8.74218 3.09174 9.22029 3.20485 9.69662L7.09863 26.0948C7.21179 26.5714 7.68985 26.8658 8.16618 26.7527L18.7513 24.2392L22.0418 27.2863C22.2587 27.4872 22.5615 27.5668 22.8492 27.4985C23.1367 27.4302 23.3715 27.223 23.4751 26.946L25.0443 22.745L35.629 20.2316C36.1055 20.1185 36.4002 19.6406 36.287 19.164L32.3933 2.76579C32.2802 2.28946 31.802 1.99483 31.3257 2.10794ZM23.1184 16.8892C22.2911 18.1852 21.3823 19.1025 21.3439 19.141C21.2254 19.26 21.0782 19.3403 20.9207 19.3777C20.7633 19.4151 20.5956 19.4095 20.4363 19.3565C20.3847 19.3394 19.1605 18.9286 17.8389 18.1428C15.9604 17.0259 14.8359 15.7361 14.4971 14.3093C14.0804 12.5543 15.1693 10.7876 16.9241 10.3709C17.5565 10.2207 18.2112 10.2635 18.8088 10.4837C19.2436 10.0184 19.8092 9.68579 20.4417 9.53562C22.1967 9.11888 23.9634 10.2075 24.3801 11.9626C24.7189 13.3893 24.2943 15.047 23.1184 16.8892Z" fill="url(#paint0_linear)"/>
<path d="M18.6297 9.35795C18.2053 9.45874 17.8467 9.73962 17.6454 10.1283C17.5269 10.3576 17.314 10.5239 17.0628 10.5835C16.8116 10.6431 16.5466 10.5903 16.3377 10.4388C15.9832 10.1821 15.5366 10.0924 15.1121 10.1932C14.3087 10.384 13.8101 11.1931 14.0009 11.9965C14.4052 13.6994 16.8547 15.0113 18.247 15.5746C19.237 14.4428 20.8358 12.1654 20.4331 10.4692C20.2423 9.66573 19.4332 9.16717 18.6297 9.35795Z" fill="#2BA84A"/>
<path d="M29.1041 0.204862L1.64108 6.726C1.16475 6.8391 0.870125 7.31721 0.983231 7.79355L4.87701 24.1918C4.99017 24.6683 5.46823 24.9627 5.94456 24.8496L16.5297 22.3362L19.8202 25.3832C20.0371 25.5841 20.3399 25.6637 20.6276 25.5954C20.9151 25.5271 21.1498 25.3199 21.2534 25.0429L22.8227 20.8419L33.4074 18.3285C33.8839 18.2154 34.1786 17.7375 34.0654 17.2609L30.1716 0.862714C30.0585 0.38638 29.5804 0.0917563 29.1041 0.204862ZM20.8968 14.9861C20.0695 16.2821 19.1607 17.1994 19.1223 17.2379C19.0038 17.3569 18.8565 17.4372 18.6991 17.4746C18.5417 17.512 18.374 17.5064 18.2146 17.4535C18.163 17.4363 16.9389 17.0255 15.6173 16.2398C13.7387 15.1228 12.6143 13.833 12.2755 12.4062C11.8588 10.6512 12.9476 8.88448 14.7024 8.4678C15.3349 8.31763 15.9896 8.36047 16.5872 8.58062C17.022 8.11533 17.5876 7.78271 18.22 7.63254C19.9751 7.21581 21.7417 8.30447 22.1585 10.0595C22.4973 11.4863 22.0727 13.1439 20.8968 14.9861Z" fill="url(#paint1_linear)"/>
<defs>
<linearGradient id="paint0_linear" x1="17.5942" y1="5.36851" x2="22.849" y2="27.4985" gradientUnits="userSpaceOnUse">
<stop stop-color="#040F0F"/>
<stop offset="1" stop-color="#2D3A3A"/>
</linearGradient>
<linearGradient id="paint1_linear" x1="15.3726" y1="3.46543" x2="20.6274" y2="25.5955" gradientUnits="userSpaceOnUse">
<stop stop-color="#2BA84A"/>
<stop offset="1" stop-color="#1ADA37"/>
</linearGradient>
</defs>
</svg>
