<svg width="160" height="160" viewBox="0 0 160 160" fill="none" xmlns="http://www.w3.org/2000/svg">
<path d="M80 160C124.112 160 160 124.112 160 80C160 35.8883 124.112 0 80 0C35.8883 0 0 35.8883 0 80C0 124.112 35.8883 160 80 160V160ZM68.8736 38.1073V32.2955C68.8736 26.1503 73.8548 21.1691 80 21.1691C86.1423 21.1691 91.1235 26.1503 91.1235 32.2955V35.7647H96.5559C102.698 35.7647 107.679 40.7459 107.679 46.8911C107.679 53.0334 102.698 58.0146 96.5559 58.0146H80C77.005 58.0146 74.5676 60.452 74.5676 63.447C74.5676 66.442 77.005 68.8765 80 68.8765C81.8137 68.8765 83.5871 69.0576 85.3031 69.391C98.0361 71.8744 107.679 83.1071 107.679 96.5559C107.679 107.863 100.862 117.601 91.1235 121.896V127.707C91.1235 133.85 86.1423 138.831 80 138.831C73.8548 138.831 68.8736 133.85 68.8736 127.707V124.235H63.4441C57.2989 124.235 52.3206 119.254 52.3206 113.112C52.3206 106.969 57.2989 101.988 63.4441 101.988H80C82.995 101.988 85.4295 99.5509 85.4295 96.5559C85.4295 93.5609 82.995 91.1235 80 91.1235C78.1835 91.1235 76.4129 90.9424 74.6941 90.609C61.961 88.1256 52.3206 76.8929 52.3206 63.4441C52.3206 52.1367 59.1384 42.3986 68.8736 38.1073V38.1073Z" fill="#FCFFFC" fill-opacity="0.15"/>
</svg>
