<svg width="14" height="15" viewBox="0 0 14 15" fill="none" xmlns="http://www.w3.org/2000/svg">
<path d="M13.7871 13.208L10.3359 9.61857C11.2233 8.5637 11.7095 7.23645 11.7095 5.85474C11.7095 2.62649 9.08299 0 5.85474 0C2.62649 0 0 2.62649 0 5.85474C0 9.08299 2.62649 11.7095 5.85474 11.7095C7.06667 11.7095 8.22158 11.3439 9.20899 10.65L12.6864 14.2667C12.8318 14.4177 13.0273 14.5009 13.2368 14.5009C13.4351 14.5009 13.6232 14.4253 13.766 14.2878C14.0694 13.9959 14.0791 13.5117 13.7871 13.208ZM5.85474 1.52732C8.24092 1.52732 10.1821 3.46855 10.1821 5.85474C10.1821 8.24092 8.24092 10.1821 5.85474 10.1821C3.46855 10.1821 1.52732 8.24092 1.52732 5.85474C1.52732 3.46855 3.46855 1.52732 5.85474 1.52732Z" fill="#FCFFFC"/>
</svg>
