<svg width="20" height="20" viewBox="0 0 20 20" fill="none" xmlns="http://www.w3.org/2000/svg">
<path d="M7.13104 18.528C6.08047 18.528 5.07717 18.3311 4.14093 17.9399C3.18958 17.5426 2.33734 16.9511 1.67587 16.2297L0.62439 15.0827L2.16259 15.3176C3.60306 15.5377 4.52671 15.3907 5.08713 15.1923C4.63772 14.9798 4.08874 14.6745 3.53256 14.2537C1.79672 12.9398 0.816078 11.1219 0.696945 8.9967L0.615234 7.5385L1.27373 8.21233C1.16695 7.50851 1.14841 6.61061 1.36459 5.54265L1.70757 3.84824L2.12116 4.78883C2.21718 4.06052 2.45819 3.229 3.00636 2.43443L3.72093 1.39897L3.9925 2.62727C4.29623 4.00056 4.78947 5.14153 5.4586 6.01849C5.98309 6.70571 6.61835 7.235 7.34676 7.59171C8.02734 7.92508 8.66913 8.04661 9.11579 8.08816C9.0937 7.91249 9.08272 7.73511 9.08272 7.55669C9.08272 5.21214 10.9903 3.30453 13.3349 3.30453C14.3108 3.30453 15.2642 3.6435 16.0194 4.25919C16.6787 4.79649 17.1635 5.52354 17.4071 6.33115L19.3652 6.94226L17.5869 8.38914V8.62534C17.5869 11.2257 16.5555 13.6604 14.6822 15.481C12.8705 17.2419 10.4063 18.3163 7.74387 18.5062C7.53788 18.5207 7.33349 18.528 7.13104 18.528Z" fill="#2BA84A"/>
</svg>
