<svg width="20" height="20" viewBox="0 0 20 20" fill="none" xmlns="http://www.w3.org/2000/svg">
<path d="M16.6193 3.35392C14.8487 1.58787 12.4943 0.615234 9.99024 0.615234C7.48615 0.615234 5.13176 1.58787 3.36113 3.35392C1.59039 5.12009 0.615234 7.46819 0.615234 9.96597C0.615234 11.9405 1.21948 13.815 2.36607 15.4078L0.627594 19.3652L4.97521 17.8674C6.47461 18.8165 8.20255 19.3166 9.99024 19.3166C12.4943 19.3166 14.8487 18.344 16.6193 16.5779C18.3901 14.8117 19.3652 12.4635 19.3652 9.96597C19.3652 7.46842 18.3901 5.12009 16.6193 3.35392ZM15.5195 13.1781C14.6629 14.4414 14.6629 14.4414 14.6436 14.4648C14.1672 15.045 13.4232 15.3449 12.4948 15.3449C12.1492 15.3449 11.778 15.3035 11.3855 15.2192C10.0662 14.9365 8.62599 14.1978 7.32994 13.1391C6.03401 12.0802 5.02407 10.8174 4.48631 9.58294C3.89671 8.2291 3.93231 7.04453 4.58691 6.24745C4.6059 6.22456 4.6059 6.22456 5.72479 5.0877L6.17191 4.63337L8.64224 7.90947L7.7702 8.97148C8.19512 9.55879 8.69717 10.1852 9.3306 10.7027C9.96403 11.2204 10.6787 11.5878 11.3397 11.8877L12.2184 10.8179L15.8685 12.6635L15.5195 13.1781Z" fill="#2BA84A"/>
</svg>
