<svg width="20" height="20" viewBox="0 0 20 20" fill="none" xmlns="http://www.w3.org/2000/svg">
<path d="M15.6418 19.3652C13.7484 19.3652 12.2078 17.8247 12.2078 15.9313C12.2078 15.8366 12.2118 15.7418 12.2197 15.647L6.38037 12.7586C5.78688 13.2076 5.0659 13.4512 4.31288 13.4512C2.41946 13.4512 0.878967 11.9107 0.878967 10.0171C0.878967 8.1237 2.41946 6.58321 4.31288 6.58321C4.9906 6.58321 5.65321 6.7852 6.21375 7.15759L12.2109 4.19106C12.2088 4.14356 12.2078 4.0963 12.2078 4.04915C12.2078 2.15572 13.7484 0.615234 15.6418 0.615234C17.5354 0.615234 19.0758 2.15572 19.0758 4.04915C19.0758 5.94257 17.5354 7.48306 15.6418 7.48306C14.9197 7.48306 14.2223 7.25716 13.6416 6.84059L7.73741 9.76124C7.74371 9.84627 7.7468 9.93187 7.7468 10.0172C7.7468 10.0372 7.74668 10.0571 7.74622 10.0771L13.7664 13.055C14.3214 12.6934 14.9753 12.4974 15.6418 12.4974C17.5353 12.4974 19.0758 14.0379 19.0758 15.9313C19.0758 17.8247 17.5353 19.3652 15.6418 19.3652Z" fill="#2BA84A"/>
</svg>
