<svg width="30" height="30" viewBox="0 0 30 30" fill="none" xmlns="http://www.w3.org/2000/svg">
<path d="M24.8995 4.96435C22.247 2.56366 18.7262 1.2417 14.9854 1.2417C11.2445 1.2417 7.72374 2.56366 5.07123 4.96435C2.39606 7.38563 0.922859 10.6115 0.922859 14.048C0.922859 16.6222 1.75181 19.0904 3.32371 21.2085L2.11556 28.7633L9.75844 25.94C11.4208 26.5468 13.1776 26.8544 14.9854 26.8544C18.7262 26.8544 22.247 25.5323 24.8995 23.1316C27.5747 20.7103 29.0479 17.4845 29.0479 14.048C29.0479 10.6115 27.5747 7.38563 24.8995 4.96435ZM16.2179 17.726L13.1093 15.2939L5.67359 18.2367L14.1816 9.77447L17.3278 12.2867L24.1339 9.64796L16.2179 17.726Z" fill="#2BA84A"/>
</svg>
