<svg width="30" height="30" viewBox="0 0 30 30" fill="none" xmlns="http://www.w3.org/2000/svg">
<path d="M8.2243 29.0479H0.953064V9.45532H8.2243V29.0479Z" fill="#2BA84A"/>
<path d="M29.0479 29.0479H21.9242L21.9273 20.3804C21.9572 18.9734 21.3894 17.813 20.4085 17.276C19.7351 16.9071 18.96 16.9061 18.2328 17.2615L18.17 29.0479H10.7148V9.45532H18.1745V10.2517C20.4921 9.31199 22.9498 9.4476 25.0856 10.6691C27.4926 12.0462 29.0479 14.5919 29.0479 17.1549V29.0479Z" fill="#2BA84A"/>
<path d="M4.57375 8.23185C2.5605 8.23185 0.922852 6.59248 0.922852 4.57735C0.922852 2.56222 2.5605 0.922852 4.57375 0.922852C6.58665 0.922852 8.2243 2.56222 8.2243 4.57735C8.2243 6.59248 6.58665 8.23185 4.57375 8.23185Z" fill="#2BA84A"/>
</svg>
