<svg width="30" height="30" viewBox="0 0 30 30" fill="none" xmlns="http://www.w3.org/2000/svg">
<path d="M0.922852 6.76655V23.2042C0.922852 26.4316 3.53914 29.0479 6.76655 29.0479H23.2042C26.4316 29.0479 29.0479 26.4316 29.0479 23.2042V6.76655C29.0479 3.53914 26.4316 0.922852 23.2042 0.922852H6.76655C3.53914 0.922852 0.922852 3.53914 0.922852 6.76655ZM17.9645 22.9542C11.0275 25.3477 4.62301 18.9432 7.01649 12.0062C7.82295 9.66814 9.66797 7.82295 12.006 7.01649C18.9432 4.62301 25.3477 11.0275 22.9542 17.9647C22.1478 20.3027 20.3027 22.1478 17.9645 22.9542ZM24.7445 6.4809C24.6341 7.05889 24.1558 7.39517 23.6611 7.39517C23.36 7.39517 23.0531 7.27089 22.8181 7.00121C22.7973 6.97735 22.7779 6.95177 22.7608 6.92516C22.5182 6.55437 22.5106 6.11389 22.7168 5.75666C22.8627 5.50381 23.0982 5.32322 23.3803 5.24769C23.662 5.17181 23.9565 5.21078 24.2091 5.35686C24.5665 5.56286 24.78 5.94824 24.7556 6.39009C24.7539 6.42031 24.7503 6.45103 24.7445 6.4809Z" fill="#2BA84A"/>
<path d="M14.9853 8.15283C11.2177 8.15283 8.15288 11.2177 8.15288 14.9853C8.15288 18.7529 11.2177 21.8178 14.9853 21.8178C18.753 21.8178 21.8178 18.7529 21.8178 14.9853C21.8178 11.2177 18.753 8.15283 14.9853 8.15283Z" fill="#2BA84A"/>
</svg>
