<svg width="30" height="30" viewBox="0 0 30 30" fill="none" xmlns="http://www.w3.org/2000/svg">
<path d="M24.929 5.03088C22.2731 2.3818 18.7415 0.922852 14.9854 0.922852C11.2292 0.922852 7.69764 2.3818 5.04169 5.03088C2.38558 7.68013 0.922852 11.2023 0.922852 14.949C0.922852 17.9108 1.82922 20.7224 3.5491 23.1116L0.941391 29.0479L7.46281 26.8011C9.71191 28.2247 12.3038 28.9749 14.9854 28.9749C18.7415 28.9749 22.2731 27.5159 24.929 24.8669C27.5851 22.2176 29.0479 18.6953 29.0479 14.949C29.0479 11.2026 27.5851 7.68013 24.929 5.03088ZM23.2792 19.7672C21.9943 21.6621 21.9943 21.6621 21.9654 21.6971C21.2508 22.5675 20.1348 23.0174 18.7422 23.0174C18.2237 23.0174 17.667 22.9552 17.0782 22.8287C15.0993 22.4047 12.939 21.2967 10.9949 19.7086C9.05102 18.1202 7.53611 16.2261 6.72947 14.3744C5.84507 12.3437 5.89846 10.5668 6.88036 9.37117C6.90886 9.33683 6.90886 9.33683 8.58719 7.63155L9.25787 6.95005L12.9634 11.8642L11.6553 13.4572C12.2927 14.3382 13.0457 15.2779 13.9959 16.0541C14.946 16.8305 16.0181 17.3817 17.0096 17.8315L18.3276 16.2268L23.8027 18.9952L23.2792 19.7672Z" fill="#2BA84A"/>
</svg>
